<?xml version="1.0" encoding="UTF-8"?>
<!DOCTYPE svg PUBLIC "-//W3C//DTD SVG 1.1//EN" "http://www.w3.org/Graphics/SVG/1.1/DTD/svg11.dtd">
<!-- Creator: CorelDRAW X8 -->
<svg xmlns="http://www.w3.org/2000/svg" xml:space="preserve" width="1.05371in" height="1.28885in" version="1.1" style="shape-rendering:geometricPrecision; text-rendering:geometricPrecision; image-rendering:optimizeQuality; fill-rule:evenodd; clip-rule:evenodd"
viewBox="0 0 11904 14560"
 xmlns:xlink="http://www.w3.org/1999/xlink">
 <defs>
  <style type="text/css">
   <![CDATA[
    .fil0 {fill:#40BE46;fill-rule:nonzero}
   ]]>
  </style>
 </defs>
 <g id="Layer_x0020_1">
  <metadata id="CorelCorpID_0Corel-Layer"/>
  <g id="_1524099114720">
   <polygon class="fil0" points="11285,14560 25,14560 25,13556 11285,13556 "/>
   <path class="fil0" d="M8079 575c259,126 367,440 240,699 -127,260 -440,367 -699,240 -310,-152 -638,-268 -977,-347 -335,-77 -681,-117 -1032,-117 -1260,0 -2400,511 -3225,1336 -825,825 -1336,1965 -1336,3225 0,1259 511,2399 1336,3224 825,825 1965,1336 3225,1336 482,0 956,-75 1404,-220 451,-146 879,-362 1267,-642 235,-169 562,-116 731,119 168,234 115,561 -119,730 -478,345 -1005,611 -1559,790 -557,180 -1138,273 -1724,273 -1550,0 -2952,-628 -3968,-1643 -1015,-1016 -1643,-2418 -1643,-3967 0,-1550 628,-2952 1643,-3968 1016,-1015 2418,-1643 3968,-1643 424,0 849,49 1266,146 412,95 815,239 1202,429zm-1269 4451c0,-290 235,-525 525,-525 290,0 525,235 525,525l0 683 683 0c290,0 525,235 525,525 0,290 -235,525 -525,525l-683 0 0 683c0,290 -235,525 -525,525 -290,0 -525,-235 -525,-525l0 -683 -683 0c-290,0 -525,-235 -525,-525 0,-290 235,-525 525,-525l683 0 0 -683zm2836 -2573c0,-290 235,-525 525,-525 290,0 525,235 525,525l0 683 683 0c290,0 525,235 525,525 0,290 -235,525 -525,525l-683 0 0 683c0,290 -235,525 -525,525 -290,0 -525,-235 -525,-525l0 -683 -683 0c-290,0 -525,-235 -525,-525 0,-290 235,-525 525,-525l683 0 0 -683z"/>
  </g>
 </g>
</svg>
