<?xml version="1.0" encoding="UTF-8"?>
<!DOCTYPE svg PUBLIC "-//W3C//DTD SVG 1.1//EN" "http://www.w3.org/Graphics/SVG/1.1/DTD/svg11.dtd">
<!-- Creator: CorelDRAW X8 -->
<svg xmlns="http://www.w3.org/2000/svg" xml:space="preserve" width="2.02898in" height="2.29106in" version="1.1" style="shape-rendering:geometricPrecision; text-rendering:geometricPrecision; image-rendering:optimizeQuality; fill-rule:evenodd; clip-rule:evenodd"
viewBox="0 0 77912 87976"
 xmlns:xlink="http://www.w3.org/1999/xlink">
 <defs>
  <style type="text/css">
   <![CDATA[
    .fil0 {fill:#606060}
   ]]>
  </style>
 </defs>
 <g id="Layer_x0020_1">
  <metadata id="CorelCorpID_0Corel-Layer"/>
  <path class="fil0" d="M60071 40088c-1188,0 -1991,115 -2409,230l0 7605c495,115 1108,154 1949,154 3095,0 5007,-1569 5007,-4204 0,-2371 -1643,-3785 -4547,-3785zm12910 -8620l-2112 0 0 -10192c0,-64 -10,-128 -19,-192 -3,-405 -132,-803 -409,-1118l-16962 -19376c-5,-5 -10,-7 -14,-12 -101,-113 -219,-207 -344,-288 -36,-25 -73,-46 -112,-67 -108,-59 -223,-108 -340,-143 -33,-9 -61,-22 -93,-31 -128,-30 -261,-49 -396,-49l-41687 0c-1903,0 -3450,1548 -3450,3450l0 28018 -2112 0c-2723,0 -4931,2207 -4931,4931l0 25642c0,2723 2208,4931 4931,4931l2112 0 0 17554c0,1902 1547,3450 3450,3450l56926 0c1901,0 3450,-1548 3450,-3450l0 -17554 2112 0c2723,0 4931,-2208 4931,-4930l0 -25642c0,-2724 -2208,-4932 -4931,-4932zm-62488 -28017l39962 0 0 17652c0,953 773,1724 1725,1724l15239 0 0 8643 -56926 0 0 -28019zm36352 32433l0 25760 -5848 0 0 -25760 5848 0zm-28401 4815l0 -4815 18689 0 0 3364 -12000 17428 0 152 12192 0 0 4816 -20027 0 0 -3135 12269 -17656 0 -154 -11123 0zm48975 42893l-56926 0 0 -16620 56926 0 0 16620 0 0zm600 -33757c-1987,1873 -4930,2712 -8370,2712 -766,0 -1452,-37 -1987,-114l0 9211 -5771 0 0 -25416c1796,-307 4318,-536 7872,-536 3594,0 6153,688 7875,2064 1642,1299 2751,3440 2751,5963 0,2522 -841,4662 -2370,6116z"/>
 </g>
</svg>
