<svg width="32" height="32" fill="none" xmlns="http://www.w3.org/2000/svg"><g clip-path="url(#prefix__clip0)"><path d="M16 .667c-8.84 0-16 7.04-16 15.722 0 6.948 4.584 12.84 10.94 14.918.8.148 1.093-.339 1.093-.756 0-.374-.013-1.363-.02-2.674-4.45.948-5.389-2.109-5.389-2.109-.728-1.815-1.78-2.3-1.78-2.3-1.45-.975.112-.955.112-.955 1.607.11 2.45 1.62 2.45 1.62 1.427 2.404 3.746 1.71 4.66 1.308.145-1.017.557-1.709 1.014-2.102-3.553-.394-7.288-1.746-7.288-7.77 0-1.716.62-3.118 1.647-4.218-.18-.398-.72-1.996.14-4.162 0 0 1.34-.42 4.4 1.612a15.62 15.62 0 014-.53c1.36.008 2.72.181 4 .53 3.04-2.033 4.38-1.612 4.38-1.612.86 2.166.32 3.764.16 4.162 1.02 1.1 1.64 2.502 1.64 4.218 0 6.04-3.74 7.37-7.3 7.756.56.472 1.08 1.436 1.08 2.91 0 2.104-.02 3.794-.02 4.305 0 .412.28.904 1.1.747C27.42 29.223 32 23.327 32 16.389 32 7.707 24.836.667 16 .667z" fill="#000"/></g><defs><clipPath id="prefix__clip0"><path fill="#fff" d="M0 0h32v32H0z"/></clipPath></defs></svg>