<svg width="31" height="31" fill="none" xmlns="http://www.w3.org/2000/svg"><g clip-path="url(#prefix__clip0)"><path d="M11.422 16.34a3.257 3.257 0 00-3.256 3.257v8.145a3.257 3.257 0 006.513 0v-8.145a3.258 3.258 0 00-3.257-3.256zM.024 19.597a3.26 3.26 0 006.518 0v-3.259H3.283a3.26 3.26 0 00-3.259 3.26z" fill="#E91E63"/><path d="M11.427-.001h-.004a3.26 3.26 0 000 6.517h3.256V3.257v-.006a3.253 3.253 0 00-3.252-3.252zM3.26 14.686h8.162a3.26 3.26 0 000-6.518H3.26a3.26 3.26 0 000 6.518z" fill="#00BCD4"/><path d="M27.715 8.167a3.252 3.252 0 00-3.252 3.253V14.685h3.256a3.26 3.26 0 000-6.518h-.004zM16.328 3.258v8.17a3.257 3.257 0 006.513 0v-8.17a3.257 3.257 0 00-6.513 0z" fill="#4CAF50"/><path d="M22.839 27.74a3.257 3.257 0 00-3.256-3.256h-3.257v3.258a3.256 3.256 0 006.513-.002zM27.744 16.338h-8.16a3.26 3.26 0 000 6.518h8.16a3.26 3.26 0 000-6.518z" fill="#FF9800"/></g><defs><clipPath id="prefix__clip0"><path fill="#fff" d="M0 0h31v31H0z"/></clipPath></defs></svg>