<svg version="1.1" id="prefix__Layer_1" xmlns="http://www.w3.org/2000/svg" xmlns:xlink="http://www.w3.org/1999/xlink" x="0" y="0" viewBox="0 0 551 118" xml:space="preserve"><style>.prefix__st0{fill-rule:evenodd;clip-rule:evenodd;fill:#6699cb}</style><path class="prefix__st0" d="M198.7 59.75l-51.08-29.62v47.49l51.08 33.65z"/><defs><path id="prefix__SVGID_1_" d="M147.49 30.14l51.21 29.61 51.08-27.24-52.39-25.78z"/></defs><clipPath id="prefix__SVGID_2_"><use xlink:href="#prefix__SVGID_1_" overflow="visible"/></clipPath><linearGradient id="prefix__SVGID_3_" gradientUnits="userSpaceOnUse" x1="223.592" y1="47.661" x2="192.625" y2="29.769"><stop offset="0" stop-color="#afd5e6"/><stop offset="1" stop-color="#afd5e6"/></linearGradient><path clip-path="url(#prefix__SVGID_2_)" fill="url(#prefix__SVGID_3_)" d="M147.49 6.73h102.3v53.01h-102.3z"/><path fill-rule="evenodd" clip-rule="evenodd" fill="#7ba7d3" d="M198.7 59.75l51.08-27.24v47.48l-51.08 31.28z"/><path class="prefix__st0" d="M198.93 19.49l-2.96.33-.43.18-.47.01-.42.18-2.31.55-.33.14-.31.01-.28.23-4.27 1.58-.22.17c-1.93.75-3.49 1.8-5.16 2.66l-.19.2c-1.5.84-2.03 1.28-3.08 2.32l-.25.17-1.06 1.42-.21.18-.35.71-.19.2c-1.2 2.75-1.18 3.19-.93 6.4l.21.32v.33l.15.29.4.99.17.23.18.51.21.18c.61 1.1 1.37 1.97 2.1 2.77.41.45 2.16 1.87 2.85 2.22l.19.21c1.4.67 2.44 1.51 4.22 2.13l.24.16 3.45 1.08.39.19c1.19.13 2.44.48 3.76.65 1.44.19 2.2-.5 3.4-1.02l.23-.17h.16l.23-.17 5.47-2.52.23-.17h.16l.23-.17 3.15-1.49-.28-.12c-1.85-.08-4.04.2-6.04.15-2.01-.05-3.87-.42-5.71-.5l-.39-.19c-1.33-.13-2.66-.69-3.81-1.08l-.25-.16c-1.85-.66-3.55-2.12-4.35-3.63-1.27-2.4-.48-4.18.48-6.21l.21-.18.17-.33.22-.18c.99-1.41 3.43-3.37 5.83-4.13l.25-.16 2.54-.72.37-.19.39.02.39-.19 1.69-.14c.41-.27.62-.23 1.2-.24h3.93c.62-.02 1.16-.02 1.6.23l2.29.31.28.22c1.39.2 2.55.97 3.72 1.4l.2.19.73.34.19.2c1.23.65 3.41 2.65 3.87 4.24l.16.26c.52 1.8.39 2.4-.01 4.17l-.16.33-.64 1.38.96-.39.21-.18 7.56-3.91.21-.18 1.81-.89.21-.18 1.81-.89.21-.2c.07-.39-2.27-2.32-2.77-2.79l-.18-.25c-.61-.52-1.49-1.28-2.21-1.73l-.18-.22c-.72-.41-1.33-1.05-2.03-1.39l-.19-.2-1.83-1.05-.19-.2-2.38-1.24-.23-.17-3.07-1.27-.26-.16-1.85-.52-.29-.22h-.32l-.36-.16h-.34l-.32-.21c-1.51-.14-3.17-.63-4.86-.79-2.03-.18-4.01.05-5.83-.11l-.72.22z"/><path fill-rule="evenodd" clip-rule="evenodd" fill="#2f6799" d="M225.14 45.65l1.91-1.02v49.28l-1.91 1.17z"/><g id="prefix__Layer_x0020_1_7_"><path d="M46.89 73.37l-5.07 1.39c.49 1.31.82 3.6.82 6.7v15.28h5.72v-16.1c1.06-1.31 2.21-1.88 3.51-1.88.65 0 1.06.16 1.63.41l1.55-5.23c-.9-.41-1.31-.49-2.12-.49-.65 0-1.39.16-1.88.33-1.06.57-2.45 1.72-3.19 2.86-.24-1.31-.48-2.29-.97-3.27zm-19.78-7.52h-.65v30.89h5.97V83.09h7.52v-5.07h-7.52v-7.11h9.4l.33-2.7c-5.65-.4-10.72-1.38-15.05-2.36zm-13.89 35.06L16 104.1c2.7-1.06 6.05-3.51 6.86-7.27.33-1.23.41-2.04.41-6.05V65.93h-6.05v25.5c0 3.35-.16 4.58-.57 5.72-.57 1.22-1.88 2.78-3.43 3.76zm54.02-15.69c0 5.39-1.06 7.68-3.51 7.68-1.14 0-2.37-.65-2.86-1.88-.49-1.14-.74-3.11-.74-5.72 0-2.29.25-3.84.57-5.07.49-1.39 1.55-2.29 2.94-2.29.98 0 1.88.41 2.45 1.23.82.98 1.15 2.94 1.15 6.05zm3.51 8.9c1.88-2.21 2.7-4.9 2.7-8.83 0-3.68-.74-6.21-2.53-8.34-1.88-2.29-4.25-3.43-7.35-3.43-5.88 0-9.72 4.74-9.72 11.93 0 7.19 3.84 11.85 9.72 11.85 3.34.01 5.55-1.22 7.18-3.18zm16.26-12.83c0 2.12-1.23 3.27-3.51 3.27-1.96 0-3.35-.9-3.35-3.27 0-2.12 1.23-3.35 3.43-3.35s3.43 1.23 3.43 3.35zm10.05-4.82l-2.37-3.76c-1.31 1.23-2.94 1.96-4.49 1.96-.74 0-1.14-.08-2.7-.49-1.55-.41-2.7-.57-3.92-.57-5.56 0-9.15 3.02-9.15 7.68 0 3.35 1.55 5.48 4.66 6.37-1.31.33-2.7.98-3.27 1.72-.49.57-.65 1.23-.65 2.12 0 .74.16 1.31.41 1.88.33.49.74.9 1.23 1.14.98.41 2.7.65 5.23.74 1.31 0 2.12.08 2.45.08 1.55.08 2.37.33 2.94.65.57.33.98 1.14.98 2.04 0 .9-.57 1.8-1.39 2.29-.74.57-1.96.74-3.6.74-2.62 0-4.09-.98-4.09-2.78 0-.82.08-.98.25-1.47h-5.23c-.25.41-.49 1.06-.49 2.29 0 1.55.57 2.86 1.8 4.09 1.96 1.88 5.15 2.45 8.25 2.45 3.35 0 6.62-.82 8.58-2.94 1.23-1.31 1.72-2.78 1.72-4.74 0-2.04-.57-3.6-1.88-4.9-1.55-1.47-3.27-2.04-6.54-2.04l-3.02-.08c-.57 0-.9-.25-.9-.57 0-.65.82-1.14 2.29-1.88.41.08.57.08.82.08 4.66 0 8.01-2.86 8.01-6.78 0-1.55-.41-2.7-1.31-3.76.74.08.9.16 1.47.16 1.55-.08 2.69-.57 3.91-1.72zM25.64 39.04c-7.11 1.72-11.93 5.15-11.93 9.07 0 2.45 1.88 4.66 4.9 6.37-.9-1.47-1.47-3.02-1.47-4.66.09-4.07 3.19-7.83 8.5-10.78zm74.94 15.29c0-2.53-1.55-4.9-4.25-6.86.25.82.41 1.55.41 2.37 0 7.35-10.3 13.65-24.84 16.26 1.63.16 3.35.33 5.07.33 13.07-.09 23.61-5.48 23.61-12.1zm-8.42-4.01c0-2.7-2.29-5.23-6.21-7.27.9 1.14 1.39 2.29 1.39 3.51 0 6.54-13.89 11.77-30.97 11.77S25.4 53.02 25.4 46.56c0-.82.25-1.63.65-2.45-2.78 1.8-4.33 3.92-4.33 6.13 0 7.03 15.77 12.75 35.22 12.75s35.22-5.64 35.22-12.67zM76.8 50c-7.19 4.66-29.26 6.37-38.82.41-7.44-4.66-4.9-12.09-26.23-28.36-2.78-2.12.49-4.41 2.62-2.94 2.12 1.47.16 1.8 4.41 6.05 8.5 8.5 8.42.9 9.81 3.76 2.86 6.13 9.07 12.26 9.07 12.26 6.29 4.09 11.28 4.98 20.43-1.31 5.88-3.92 3.43 6.29 17.81-1.06 5.23-2.7 4.98-.9 10.3-8.34 2.21-3.11 6.46 2.37 1.63 3.11-1.88.33-5.15 2.37-6.54 5.72-1.96 4.89-1.14 8.49-4.49 10.7zM36.92 37.41c-1.8-.82-3.6-3.84-4.33-4.98 1.96-1.96 1.14-5.23.08-6.95-1.14-1.8-2.45-1.31-4-2.94-1.47-1.63.57-5.88 2.45-2.62 7.11 12.34 11.85 7.19 17.65 6.46 5.64-.74 10.54 2.37 12.09-6.29.25-1.39 1.63-1.72 1.8.57.16 2.37.98 8.01 4.09 8.74 3.11.74 5.56-.74 6.29-1.55.74-.82 1.06-.65 1.39 1.31.33 2.04 1.06 4.74 5.39 1.72 8.83-6.29 6.29-8.74 9.72-10.38 1.96-.9 5.07 2.04.57 4.33-6.37 3.19-7.03 7.27-11.11 9.81-6.78 4.25-4.74.16-15.61-1.39-4.17-.57-5.56 4.09-8.83 2.7-7.43-3.12-12.74-2.46-17.64 1.46zm23.7-22.8c.25 1.88.57 1.8 1.23 1.96.65.16 1.47-.9 1.55-1.88 0-.98-.41-1.63-1.39-1.63-1.06.08-1.47.57-1.39 1.55zm32.85 3.43c.82.74 2.94.25 3.43-.33 1.31-1.39 1.31-2.29.65-3.27-.65-.98-2.04-.82-3.43.25-1.39.98-1.14 2.86-.65 3.35zm-.57 9.32c-.65.9-.74 1.55-.25 2.04.49.57 1.55.98 2.37.41.74-.57.74-1.47.08-2.29-.65-.73-1.55-.73-2.2-.16zM25.48 16.33c1.06.33 1.47 1.31 2.37.16.41-.57.49-1.23-.08-2.04-.33-.49-2.04-.82-2.78-.16-.74.73-.08 1.79.49 2.04zm-20.84-.66c1.88 1.14 3.11 2.86 4.49 1.31.49-.49 1.06-1.47.08-3.35-.74-1.39-3.19-1.88-4.09-1.39-.89.49-1.95 2.53-.48 3.43zM21.8 24.5c.57.65 1.63.57 2.21.25.57-.33.49-1.31-.08-2.04-.33-.49-1.47-.74-2.12 0-.74.64-.42 1.38-.01 1.79z" fill="#4cb74a"/></g><path fill="none" stroke="#cfcfcf" stroke-width="3" stroke-miterlimit="10" d="M124.21 14.81l-.01 88.33"/><g><path d="M286.85 49.2v4.87c0 5.86-2.93 9.22-8.59 9.22s-8.59-3.35-8.59-9.22V35.01c0-5.86 2.93-9.22 8.59-9.21 5.66 0 8.59 3.35 8.59 9.22v3.56h-5.45v-3.93c0-2.62-1.15-3.61-2.98-3.61s-2.98.99-2.99 3.61v19.79c0 2.62 1.15 3.56 2.98 3.56s2.98-.94 2.98-3.56V49.2h5.46zM289.89 35.01c0-5.86 3.09-9.22 8.75-9.21 5.66 0 8.74 3.35 8.74 9.22v19.06c0 5.86-3.09 9.22-8.75 9.22s-8.74-3.35-8.74-9.22V35.01zm5.75 19.43c0 2.62 1.15 3.61 2.98 3.61s2.98-.99 2.98-3.61V34.65c0-2.62-1.15-3.61-2.98-3.61s-2.98.99-2.99 3.61l.01 19.79zM316.22 36.32v26.55h-5.18V26.22h7.23l5.91 21.94V26.22h5.13v36.65h-5.92l-7.17-26.55zM352.09 62.88h-5.81l-.99-6.65h-7.07l-1 6.65h-5.29l5.87-36.65h8.43l5.86 36.65zm-13.14-11.63h5.55l-2.77-18.54-2.78 18.54zM359.89 36.33v26.55h-5.18V26.23h7.23l5.91 21.94V26.23h5.13v36.65h-5.92l-7.17-26.55z"/></g><g><path d="M282.85 85.08l.02.07c.03 1.67-.56 3.07-1.76 4.2-1.21 1.13-2.8 1.69-4.79 1.69-2.02 0-3.66-.71-4.93-2.14-1.27-1.43-1.9-3.24-1.9-5.44v-3.17c0-2.2.63-4.01 1.9-5.44 1.27-1.43 2.91-2.15 4.93-2.15 2.02 0 3.62.54 4.81 1.61 1.19 1.07 1.77 2.5 1.74 4.27l-.02.07h-2.31c0-1.25-.37-2.24-1.1-2.96-.73-.73-1.77-1.09-3.11-1.09-1.35 0-2.42.54-3.22 1.63-.8 1.09-1.2 2.43-1.2 4.04v3.2c0 1.62.4 2.98 1.2 4.06.8 1.09 1.87 1.63 3.22 1.63 1.34 0 2.37-.36 3.11-1.08.73-.72 1.1-1.72 1.1-2.99l2.31-.01zM286.18 92.31h-2.06l7.45-19.35h2.04l-7.43 19.35zM309.13 85.08l.02.07c.03 1.67-.56 3.07-1.76 4.2-1.21 1.13-2.8 1.69-4.79 1.69-2.02 0-3.66-.71-4.93-2.14-1.27-1.43-1.9-3.24-1.9-5.44v-3.17c0-2.2.63-4.01 1.9-5.44 1.27-1.43 2.91-2.15 4.93-2.15 2.02 0 3.62.54 4.81 1.61 1.19 1.07 1.77 2.5 1.74 4.27l-.02.07h-2.31c0-1.25-.37-2.24-1.1-2.96-.73-.73-1.77-1.09-3.11-1.09-1.35 0-2.42.54-3.22 1.63-.8 1.09-1.2 2.43-1.2 4.04v3.2c0 1.62.4 2.98 1.2 4.06.8 1.09 1.87 1.63 3.22 1.63 1.34 0 2.37-.36 3.11-1.08.73-.72 1.1-1.72 1.1-2.99h2.31zM318.5 81.2h4.88v2.18h-4.88V89h-2.41v-5.62h-4.92V81.2h4.92v-5.18h2.41v5.18zM332.72 81.2h4.88v2.18h-4.88V89h-2.41v-5.62h-4.92V81.2h4.92v-5.18h2.41v5.18zM349.39 83.64v7.15h-2.41V72.97h6.82c1.9 0 3.38.49 4.44 1.47 1.06.98 1.59 2.27 1.58 3.87 0 1.62-.53 2.91-1.59 3.88-1.06.97-2.54 1.46-4.44 1.46l-4.4-.01zm0-1.89h4.41c1.21 0 2.11-.32 2.71-.97.6-.65.89-1.47.89-2.45 0-.99-.3-1.81-.9-2.47-.6-.66-1.5-.99-2.7-.99h-4.41v6.88zM370.59 90.79c-.08-.4-.15-.75-.19-1.06-.04-.31-.07-.61-.08-.92-.45.64-1.03 1.17-1.76 1.6-.72.43-1.5.64-2.33.64-1.38 0-2.43-.35-3.15-1.06-.72-.71-1.08-1.68-1.08-2.92 0-1.27.51-2.25 1.54-2.97 1.02-.71 2.41-1.07 4.17-1.07h2.62v-1.31c0-.78-.24-1.39-.71-1.84-.47-.45-1.14-.68-2.01-.68-.78 0-1.42.2-1.9.59-.48.39-.72.86-.72 1.41l-2.29.02-.02-.07c-.06-.96.39-1.84 1.35-2.64.96-.8 2.2-1.2 3.72-1.2 1.5 0 2.71.38 3.62 1.14.91.76 1.37 1.86 1.37 3.3v6.38c0 .47.02.93.07 1.37.05.44.14.87.27 1.3h-2.49zm-4-1.76c.87 0 1.66-.22 2.36-.67.7-.45 1.16-.96 1.37-1.54v-2.15h-2.71c-.97 0-1.75.25-2.33.73-.58.49-.87 1.07-.87 1.73 0 .59.18 1.05.55 1.4.36.33.91.5 1.63.5zM381.5 89.16c.74 0 1.39-.25 1.95-.74s.83-1.1.83-1.82h2.18l.04.07c.03 1.14-.46 2.16-1.47 3.04-1.01.89-2.19 1.33-3.53 1.33-1.86 0-3.3-.63-4.31-1.9-1.01-1.26-1.52-2.84-1.52-4.73v-.51c0-1.87.51-3.44 1.52-4.71 1.02-1.27 2.45-1.9 4.3-1.9 1.48 0 2.69.46 3.63 1.37.94.92 1.4 2.04 1.37 3.37l-.02.07h-2.19c0-.81-.26-1.5-.79-2.06-.53-.57-1.19-.85-1.99-.85-1.18 0-2.05.46-2.59 1.38-.54.92-.81 2.03-.81 3.34v.51c0 1.33.27 2.45.8 3.37.53.92 1.4 1.37 2.6 1.37zM393.02 84.68h-1.24v6.11h-2.41v-19.1h2.41v11.07h1.21l3.98-5.21h2.89l-4.81 6.11 5.23 7.14h-2.85l-4.41-6.12zM410.35 90.79c-.08-.4-.15-.75-.19-1.06-.04-.31-.07-.61-.08-.92-.45.64-1.03 1.17-1.76 1.6-.72.43-1.5.64-2.33.64-1.38 0-2.43-.35-3.15-1.06-.72-.71-1.08-1.68-1.08-2.92 0-1.27.51-2.25 1.54-2.97 1.02-.71 2.41-1.07 4.17-1.07h2.62v-1.31c0-.78-.24-1.39-.71-1.84-.47-.45-1.14-.68-2.01-.68-.78 0-1.42.2-1.9.59-.48.39-.72.86-.72 1.41l-2.29.02-.02-.07c-.06-.96.39-1.84 1.35-2.64.96-.8 2.2-1.2 3.72-1.2 1.5 0 2.71.38 3.62 1.14.91.76 1.37 1.86 1.37 3.3v6.38c0 .47.02.93.07 1.37.05.44.14.87.27 1.3l-2.49-.01zm-4-1.76c.87 0 1.66-.22 2.36-.67.7-.45 1.16-.96 1.37-1.54v-2.15h-2.71c-.97 0-1.75.24-2.33.73-.58.49-.87 1.07-.87 1.73 0 .59.18 1.05.55 1.4.37.33.91.5 1.63.5zM415.57 84.42c0-2.13.46-3.85 1.37-5.15.91-1.31 2.18-1.96 3.81-1.96.84 0 1.58.17 2.22.51.64.34 1.17.83 1.6 1.46l.29-1.73h1.92v13.32c0 1.7-.49 3-1.48 3.91-.99.91-2.41 1.36-4.27 1.36-.64 0-1.32-.09-2.06-.26-.74-.18-1.39-.41-1.95-.72l.37-1.87c.47.25 1.03.44 1.68.59.66.15 1.3.23 1.94.23 1.18 0 2.03-.27 2.56-.8.53-.54.8-1.35.8-2.44v-1.51c-.43.56-.95.97-1.55 1.26-.6.29-1.3.43-2.09.43-1.62 0-2.88-.59-3.79-1.76-.91-1.17-1.36-2.71-1.36-4.62v-.25zm2.41.25c0 1.33.27 2.4.82 3.21.55.81 1.39 1.21 2.53 1.21.73 0 1.33-.17 1.82-.5.49-.33.89-.8 1.21-1.4v-6.1c-.31-.56-.71-1.01-1.21-1.34-.5-.33-1.1-.5-1.8-.5-1.15 0-2 .48-2.55 1.43-.55.96-.83 2.19-.83 3.72v.27zM435.73 91.05c-1.9 0-3.38-.61-4.45-1.82-1.06-1.22-1.6-2.82-1.6-4.8v-.54c0-1.9.55-3.47 1.65-4.72 1.1-1.24 2.44-1.87 4.02-1.87 1.77 0 3.1.55 3.98 1.65s1.33 2.57 1.33 4.4v1.27h-8.47l-.04.06c0 1.33.29 2.41.88 3.24.59.83 1.48 1.24 2.69 1.24.82 0 1.53-.12 2.15-.35.62-.23 1.14-.55 1.59-.96l.94 1.57c-.47.46-1.1.84-1.87 1.16-.77.32-1.71.47-2.8.47zm-.38-11.85c-.84 0-1.54.32-2.09.97-.55.65-.89 1.48-1.01 2.49l.02.06h5.97v-.2c0-.96-.24-1.76-.71-2.39-.46-.61-1.19-.93-2.18-.93zM458.77 87.46h.07l5.69-14.48h3V90.8h-2.41V77.44l-.07-.01-5.4 13.37h-1.68l-5.56-13.81-.07.01v13.8h-2.41V72.98h3.17l5.67 14.48zM479.52 90.8c-.08-.4-.15-.75-.19-1.06a7.14 7.14 0 01-.08-.92c-.45.64-1.03 1.17-1.76 1.6-.72.43-1.5.64-2.33.64-1.38 0-2.43-.35-3.15-1.06-.72-.71-1.08-1.68-1.08-2.92 0-1.27.51-2.25 1.54-2.97 1.02-.71 2.41-1.07 4.17-1.07h2.62v-1.31c0-.78-.24-1.39-.71-1.84-.47-.45-1.14-.68-2.01-.68-.78 0-1.42.2-1.9.59-.48.39-.72.86-.72 1.41l-2.29.02-.02-.07c-.06-.96.39-1.84 1.35-2.64.96-.8 2.2-1.2 3.72-1.2 1.5 0 2.71.38 3.62 1.14.91.76 1.37 1.86 1.37 3.3v6.38c0 .47.02.93.07 1.37.05.44.14.87.27 1.3h-2.49zm-4-1.76c.87 0 1.66-.22 2.36-.67.7-.45 1.16-.96 1.37-1.54v-2.15h-2.71c-.97 0-1.75.25-2.33.73-.58.49-.87 1.07-.87 1.73 0 .59.18 1.05.55 1.4.36.33.91.5 1.63.5zM487.32 77.56l.17 1.97c.44-.7.99-1.25 1.66-1.63.67-.39 1.42-.58 2.27-.58 1.43 0 2.53.42 3.32 1.26.78.84 1.18 2.13 1.18 3.87v8.36h-2.41V82.5c0-1.17-.23-2-.69-2.48s-1.16-.73-2.11-.73c-.74 0-1.37.15-1.89.45-.52.3-.93.72-1.23 1.25v9.83h-2.41V77.57h2.14zM507.55 90.8c-.08-.4-.15-.75-.19-1.06-.04-.31-.07-.61-.08-.92-.45.64-1.03 1.17-1.76 1.6-.72.43-1.5.64-2.33.64-1.38 0-2.43-.35-3.15-1.06-.72-.71-1.08-1.68-1.08-2.92 0-1.27.51-2.25 1.54-2.97 1.02-.71 2.41-1.07 4.17-1.07h2.62v-1.31c0-.78-.24-1.39-.71-1.84-.47-.45-1.14-.68-2.01-.68-.78 0-1.42.2-1.9.59-.48.39-.72.86-.72 1.41l-2.29.02-.02-.07c-.06-.96.39-1.84 1.35-2.64.96-.8 2.2-1.2 3.72-1.2 1.5 0 2.71.38 3.62 1.14.91.76 1.37 1.86 1.37 3.3v6.38c0 .47.02.93.07 1.37.05.44.14.87.27 1.3h-2.49zm-4-1.76c.87 0 1.66-.22 2.36-.67.7-.45 1.16-.96 1.37-1.54v-2.15h-2.71c-.97 0-1.75.25-2.33.73-.58.49-.87 1.07-.87 1.73 0 .59.18 1.05.55 1.4.37.33.91.5 1.63.5zM512.77 84.43c0-2.13.46-3.85 1.37-5.15.91-1.31 2.18-1.96 3.81-1.96.84 0 1.58.17 2.22.51.64.34 1.17.83 1.6 1.46l.29-1.73h1.92v13.32c0 1.7-.49 3-1.48 3.91-.99.91-2.41 1.36-4.27 1.36-.64 0-1.32-.09-2.06-.26-.74-.18-1.39-.41-1.95-.72l.37-1.87c.47.25 1.03.44 1.68.59.66.15 1.3.23 1.94.23 1.18 0 2.03-.27 2.56-.8.53-.53.8-1.35.8-2.44v-1.51c-.43.56-.95.97-1.55 1.26-.6.29-1.3.43-2.09.43-1.62 0-2.88-.59-3.79-1.76-.91-1.17-1.36-2.71-1.36-4.62v-.25zm2.41.25c0 1.33.27 2.4.82 3.21.55.81 1.39 1.21 2.53 1.21.73 0 1.33-.17 1.82-.5.49-.33.89-.8 1.21-1.4v-6.1c-.31-.56-.71-1.01-1.21-1.34-.5-.33-1.1-.5-1.8-.5-1.15 0-2 .48-2.55 1.43-.55.95-.83 2.19-.83 3.72v.27zM532.93 91.06c-1.9 0-3.38-.61-4.45-1.82-1.06-1.22-1.6-2.82-1.6-4.8v-.54c0-1.9.55-3.47 1.65-4.72 1.1-1.24 2.44-1.87 4.02-1.87 1.77 0 3.1.55 3.98 1.65s1.33 2.57 1.33 4.4v1.27h-8.47l-.04.06c0 1.33.29 2.41.88 3.24.59.83 1.48 1.24 2.69 1.24.82 0 1.53-.12 2.15-.35.62-.23 1.14-.55 1.59-.96l.94 1.57c-.47.46-1.1.84-1.87 1.16-.77.32-1.71.47-2.8.47zm-.38-11.85c-.84 0-1.54.32-2.09.97-.55.65-.89 1.48-1.01 2.49l.02.06h5.97v-.2c0-.96-.24-1.76-.71-2.39-.46-.61-1.19-.93-2.18-.93zM546.84 79.69l-1.24-.07c-.64 0-1.17.15-1.61.45s-.77.73-1.01 1.27v9.46h-2.41V77.55h2.15l.23 1.93c.38-.69.84-1.22 1.39-1.6.55-.38 1.19-.58 1.9-.58.18 0 .35.01.51.04s.3.06.4.09l-.31 2.26z"/></g></svg>