<svg width="76" height="100" viewBox="0 0 76 100" fill="none" xmlns="http://www.w3.org/2000/svg">
<g clip-path="url(#clip0)">
<path d="M37.5005 98.68C42.6201 98.68 46.7705 94.5297 46.7705 89.41C46.7705 84.2903 42.6201 80.14 37.5005 80.14C32.3808 80.14 28.2305 84.2903 28.2305 89.41C28.2305 94.5297 32.3808 98.68 37.5005 98.68Z" stroke="white" stroke-width="2" stroke-miterlimit="10"/>
<path d="M37.9904 19.44C56.8398 19.44 72.1204 15.3121 72.1204 10.22C72.1204 5.12793 56.8398 1 37.9904 1C19.1409 1 3.86035 5.12793 3.86035 10.22C3.86035 15.3121 19.1409 19.44 37.9904 19.44Z" stroke="white" stroke-width="2" stroke-miterlimit="10"/>
<path d="M72.1204 25.4C72.1204 30.49 56.8404 34.62 37.9904 34.62C19.1404 34.62 3.86035 30.49 3.86035 25.4" stroke="white" stroke-width="2" stroke-miterlimit="10"/>
<path d="M72.1204 43.01C72.1204 48.1 56.8404 52.23 37.9904 52.23C19.1404 52.23 3.86035 48.1 3.86035 43.01" stroke="white" stroke-width="2" stroke-miterlimit="10"/>
<path d="M26.9204 68.68C13.5004 67.43 3.86035 64 3.86035 59.95" stroke="white" stroke-width="2" stroke-miterlimit="10"/>
<path d="M72.12 59.95C72.12 64.16 61.7 67.71 47.46 68.82" stroke="white" stroke-width="2" stroke-miterlimit="10"/>
<path d="M46.7695 89.4H75.1095" stroke="white" stroke-width="2" stroke-miterlimit="10"/>
<path d="M28.22 89.4H0" stroke="white" stroke-width="2" stroke-miterlimit="10"/>
<path d="M37.5 80.13V60.55" stroke="white" stroke-width="2" stroke-miterlimit="10"/>
<path d="M4.01953 62.39V10.61" stroke="white" stroke-width="2" stroke-miterlimit="10"/>
<path d="M72.1201 59.95V10.22" stroke="white" stroke-width="2" stroke-miterlimit="10"/>
</g>
<defs>
<clipPath id="clip0">
<rect width="75.11" height="99.68" fill="white"/>
</clipPath>
</defs>
</svg>
