<svg width="107" height="89" viewBox="0 0 107 89" fill="none" xmlns="http://www.w3.org/2000/svg">
<g clip-path="url(#clip0)">
<path d="M20.6504 29.88C22.0504 25.58 23.3304 23.54 25.9204 19.95" stroke="white" stroke-width="2" stroke-miterlimit="10"/>
<path d="M31.1195 13.8C38.9195 6.32 50.2995 1 61.9595 1C85.9495 1 105.4 20.45 105.4 44.44C105.4 68.43 85.9495 87.88 61.9595 87.88C37.9695 87.88 18.5195 68.43 18.5195 44.44C18.5195 40.88 18.6895 37.94 19.4895 34.63" stroke="white" stroke-width="2" stroke-miterlimit="10"/>
<path d="M61.0298 14.22C61.3398 14.21 61.6398 14.21 61.9498 14.21C78.5498 14.21 91.9998 27.66 91.9998 44.25C91.9998 60.84 78.5498 74.3 61.9598 74.3C57.0198 74.3 52.3698 73.11 48.2598 71" stroke="white" stroke-width="2" stroke-miterlimit="10"/>
<path d="M61.9598 49.64C64.8316 49.64 67.1598 47.3119 67.1598 44.44C67.1598 41.5681 64.8316 39.24 61.9598 39.24C59.0879 39.24 56.7598 41.5681 56.7598 44.44C56.7598 47.3119 59.0879 49.64 61.9598 49.64Z" stroke="white" stroke-width="2" stroke-miterlimit="10"/>
<path d="M41.4502 67.16L58.6102 48.42" stroke="white" stroke-width="2" stroke-miterlimit="10"/>
<path d="M91.0303 1.08002L101.15 9.86002" stroke="white" stroke-width="2" stroke-miterlimit="10"/>
<path d="M48.57 14.21H0" stroke="white" stroke-width="2" stroke-miterlimit="10"/>
<path d="M56.9396 29.28H8.30957" stroke="white" stroke-width="2" stroke-miterlimit="10"/>
</g>
<defs>
<clipPath id="clip0">
<rect width="106.4" height="88.88" fill="white"/>
</clipPath>
</defs>
</svg>
